<?xml version="1.0" standalone="no"?>
<!DOCTYPE svg PUBLIC "-//W3C//DTD SVG 20010904//EN"
 "http://www.w3.org/TR/2001/REC-SVG-20010904/DTD/svg10.dtd">
<svg version="1.0" xmlns="http://www.w3.org/2000/svg"
 width="1500.000000pt" height="1500.000000pt" viewBox="0 0 1500.000000 1500.000000"
 preserveAspectRatio="xMidYMid meet">
<metadata>
Created by potrace 1.14, written by Peter Selinger 2001-2017
</metadata>
<g transform="translate(0.000000,1500.000000) scale(0.100000,-0.100000)"
fill="#000000" stroke="none">
<path d="M4448 12215 c-2 -2 -39 -6 -83 -9 -44 -4 -96 -9 -115 -11 -19 -3 -60
-7 -90 -10 -30 -2 -64 -6 -75 -9 -11 -2 -42 -7 -70 -10 -27 -4 -61 -9 -75 -11
-14 -3 -36 -8 -50 -10 -33 -7 -91 -17 -110 -20 -8 -1 -26 -5 -40 -8 -122 -30
-244 -60 -254 -62 -6 -1 -18 -5 -26 -8 -8 -4 -26 -9 -40 -11 -14 -3 -26 -5
-27 -7 -2 -1 -6 -2 -10 -3 -33 -6 -310 -103 -315 -111 -4 -5 -8 -6 -8 -1 0 5
-7 3 -15 -4 -8 -7 -15 -10 -15 -7 0 3 -42 -13 -92 -35 -51 -22 -99 -40 -105
-41 -7 0 -13 -4 -13 -9 0 -5 -4 -6 -10 -3 -5 3 -10 1 -10 -4 0 -6 -3 -10 -7
-9 -7 3 -94 -35 -144 -62 -9 -5 -54 -27 -100 -51 -92 -46 -368 -206 -385 -223
-6 -6 -27 -20 -47 -31 -20 -11 -37 -23 -37 -27 0 -5 -7 -8 -15 -8 -8 0 -15 -4
-15 -9 0 -5 -13 -14 -29 -21 -16 -6 -32 -18 -35 -27 -3 -8 -10 -11 -16 -8 -5
3 -10 2 -10 -4 0 -5 -17 -20 -37 -32 -21 -13 -44 -29 -51 -36 -8 -7 -30 -26
-50 -41 -21 -15 -42 -31 -48 -37 -6 -5 -28 -23 -48 -40 -118 -95 -201 -172
-353 -323 -84 -85 -153 -155 -153 -157 0 -4 -54 -66 -95 -110 -11 -12 -36 -41
-55 -66 -18 -24 -41 -52 -49 -61 -32 -34 -41 -47 -41 -58 0 -5 -3 -10 -7 -10
-5 0 -19 -17 -32 -38 -14 -20 -30 -41 -36 -47 -16 -14 -182 -266 -234 -355
-25 -41 -57 -96 -73 -123 -15 -26 -28 -52 -28 -57 0 -6 -4 -10 -9 -10 -5 0
-11 -8 -14 -17 -3 -10 -31 -72 -64 -138 -32 -66 -69 -145 -82 -175 -13 -30
-32 -73 -42 -95 -36 -83 -135 -357 -144 -400 -3 -11 -9 -31 -15 -45 -5 -14
-11 -34 -13 -45 -2 -11 -7 -27 -10 -35 -5 -14 -52 -200 -62 -247 -3 -13 -7
-33 -10 -45 -3 -13 -7 -34 -10 -48 -3 -14 -7 -36 -10 -50 -5 -24 -8 -41 -19
-108 -20 -122 -27 -172 -41 -307 -16 -140 -19 -232 -19 -475 0 -238 5 -376 19
-480 4 -34 10 -87 22 -195 3 -27 8 -57 12 -65 4 -8 6 -32 6 -52 0 -21 3 -38 6
-38 3 0 6 -6 6 -12 2 -30 13 -88 32 -168 11 -47 22 -96 24 -110 2 -14 6 -32
10 -40 5 -14 14 -51 18 -75 1 -5 6 -21 11 -35 9 -24 13 -35 22 -80 7 -29 106
-319 123 -360 8 -19 18 -44 23 -55 4 -11 17 -41 29 -68 11 -26 21 -54 21 -61
0 -7 7 -19 15 -26 9 -7 14 -15 11 -17 -6 -6 142 -300 198 -396 25 -43 46 -80
46 -83 0 -3 8 -17 19 -32 10 -15 53 -81 96 -147 43 -66 81 -122 84 -125 3 -3
23 -30 43 -60 21 -31 46 -64 56 -75 10 -11 23 -28 28 -37 5 -9 25 -35 44 -58
19 -23 60 -72 90 -108 107 -129 343 -371 471 -481 41 -36 79 -69 84 -75 6 -6
26 -23 45 -37 19 -15 45 -35 57 -46 12 -11 34 -28 49 -39 14 -10 44 -33 65
-51 21 -17 56 -42 76 -54 21 -13 40 -26 43 -29 12 -14 111 -80 120 -80 6 0 10
-4 10 -10 0 -5 4 -10 9 -10 5 0 37 -18 70 -40 33 -22 65 -40 71 -40 5 0 10 -4
10 -9 0 -5 8 -11 17 -14 10 -4 38 -18 63 -33 59 -35 142 -80 210 -115 87 -44
316 -149 324 -149 2 0 21 -8 42 -17 22 -9 41 -17 44 -18 3 0 32 -11 65 -24 33
-13 65 -24 70 -26 6 -1 17 -5 25 -8 18 -7 141 -48 155 -52 6 -1 17 -4 25 -7 8
-3 33 -11 55 -17 22 -6 65 -18 95 -26 30 -9 66 -19 80 -21 14 -3 41 -9 60 -14
41 -11 55 -14 180 -40 52 -11 111 -22 130 -25 111 -16 141 -21 221 -30 23 -2
58 -7 78 -9 150 -21 661 -28 846 -12 50 4 108 9 130 11 22 2 56 6 75 9 19 3
58 8 85 11 28 3 59 8 70 10 11 3 36 7 55 10 19 2 45 7 56 9 12 2 39 7 60 11
22 4 44 8 49 9 6 1 37 8 70 15 33 7 103 24 155 38 52 13 100 25 107 27 7 1 15
5 19 8 3 4 12 4 20 1 8 -3 14 -1 14 4 0 5 6 10 13 10 6 0 59 15 117 33 58 19
107 35 110 35 3 0 15 6 27 13 12 6 30 13 40 15 22 5 26 6 175 68 65 27 122 49
128 49 5 0 10 5 10 11 0 5 5 7 10 4 6 -3 10 -1 10 6 0 7 3 10 6 6 3 -3 31 8
62 24 31 16 62 29 68 29 7 0 14 3 16 8 2 4 30 20 63 37 33 16 93 49 133 72 39
23 72 39 72 35 0 -4 4 -2 8 3 4 6 52 38 107 72 133 82 224 144 243 166 9 9 20
17 25 17 7 0 123 84 137 100 3 3 21 17 40 31 19 15 45 35 56 45 12 11 43 37
70 59 103 85 388 363 454 442 14 17 59 71 100 119 41 49 78 94 82 99 4 6 23
29 40 52 67 85 128 172 128 182 0 5 4 11 8 13 13 5 136 191 178 268 10 19 21
37 24 40 6 6 58 103 75 137 5 13 13 23 18 23 4 0 7 4 7 10 0 5 26 62 58 127
57 116 134 294 167 383 9 25 20 52 24 60 4 8 30 84 57 168 41 129 52 152 66
148 10 -2 18 -1 18 4 0 4 16 4 35 0 20 -4 38 -4 41 1 3 5 13 5 25 -1 10 -6 19
-7 19 -3 0 4 43 6 96 3 53 -3 98 -2 101 3 2 4 13 2 24 -3 11 -6 19 -7 19 -1 0
5 14 6 35 1 20 -4 38 -4 41 1 3 5 13 5 25 -1 11 -6 19 -7 19 -1 0 5 14 6 35 1
20 -4 38 -4 41 1 3 5 13 5 25 -1 10 -6 19 -7 19 -3 0 4 43 6 96 3 53 -3 98 -2
101 3 2 4 13 2 24 -3 11 -6 19 -7 19 -1 0 5 14 6 35 1 20 -4 38 -4 41 1 3 5
13 5 25 -1 11 -6 19 -7 19 -1 0 5 14 6 35 1 20 -4 38 -4 41 1 3 5 13 5 25 -1
10 -6 19 -7 19 -3 0 4 43 7 95 5 l95 -3 1 -27 c0 -15 0 -292 1 -617 0 -324 4
-617 9 -650 5 -33 11 -75 14 -94 2 -18 7 -41 10 -51 8 -24 16 -60 20 -87 2
-12 7 -28 11 -35 5 -7 9 -17 10 -23 7 -48 152 -314 175 -323 5 -2 9 -8 9 -13
0 -17 128 -153 211 -224 50 -43 172 -125 187 -125 6 0 12 -4 12 -10 0 -5 9
-10 20 -10 11 0 20 -3 20 -8 0 -6 45 -25 185 -78 11 -4 25 -9 30 -9 6 -1 17
-5 25 -8 8 -3 29 -8 45 -11 17 -3 44 -8 60 -11 66 -15 85 -16 215 -17 160 -1
240 4 240 15 0 5 4 6 9 3 5 -3 29 1 55 8 25 8 46 12 46 10 0 -2 12 1 28 7 15
6 34 12 42 14 31 6 156 59 190 80 19 12 45 25 58 29 12 4 22 12 22 18 0 6 3 9
6 5 10 -10 138 89 223 171 43 42 102 109 130 147 28 39 56 76 61 82 6 7 15 23
20 35 6 13 21 41 33 63 48 84 104 243 123 350 3 17 8 44 11 60 3 17 7 237 9
490 2 252 6 465 8 471 3 7 2 15 -1 18 -5 5 -7 119 -3 141 1 6 2 13 1 18 -2 7
-3 71 -2 153 l1 45 70 -2 c39 -1 73 1 76 4 4 3 15 2 25 -4 11 -6 19 -6 19 0 0
5 14 6 35 1 20 -4 38 -4 41 1 3 5 13 5 25 -1 11 -6 19 -7 19 -1 0 5 14 6 35 1
20 -4 38 -4 41 1 3 5 13 5 25 -1 10 -6 19 -7 19 -3 0 10 114 8 129 -1 6 -4 11
-4 11 1 0 4 28 8 63 9 34 0 78 4 97 8 19 3 49 8 65 11 17 2 37 6 45 8 8 2 29
7 45 11 214 54 439 187 602 356 59 61 66 70 94 110 13 19 31 42 40 52 9 10 22
31 30 46 8 15 16 29 19 32 4 3 23 41 44 85 21 44 42 88 47 97 5 10 9 22 9 27
0 5 5 22 12 38 6 15 12 33 13 38 2 6 8 28 13 50 13 49 21 91 32 170 10 74 4
326 -9 379 -5 22 -9 42 -9 45 0 3 0 8 -2 11 -1 3 -3 15 -6 28 -8 46 -66 208
-89 248 -13 23 -21 45 -18 48 4 3 1 6 -5 6 -7 0 -11 3 -10 8 3 8 -72 130 -94
153 -7 8 -26 31 -41 52 -64 85 -191 200 -297 269 -117 76 -304 157 -402 173
-18 3 -41 8 -50 11 -30 9 -62 14 -138 21 -41 3 -1082 7 -2312 7 -1231 0 -2239
4 -2239 8 -2 10 -5 20 -11 38 -3 8 -16 49 -28 90 -13 41 -29 89 -36 105 -7 17
-15 43 -18 59 -3 16 -10 34 -16 40 -5 5 -10 16 -10 23 0 7 -8 32 -19 56 -10
23 -24 58 -32 77 -26 71 -156 355 -173 380 -6 8 -27 47 -46 85 -19 39 -38 72
-42 73 -5 2 -8 7 -8 12 0 9 -92 167 -110 187 -5 7 -10 17 -10 23 0 5 -4 10
-10 10 -5 0 -10 7 -10 15 0 9 -7 18 -15 21 -8 4 -15 11 -15 18 0 6 -22 43 -50
81 -27 39 -55 78 -62 88 -7 11 -21 28 -30 39 -10 12 -18 24 -18 27 0 3 -13 20
-28 38 -15 17 -49 60 -77 94 -27 35 -61 75 -75 90 -14 16 -43 49 -65 75 -85
100 -335 344 -462 452 -75 64 -89 75 -148 120 -33 26 -66 52 -73 59 -7 7 -26
20 -42 30 -17 9 -30 21 -30 25 0 4 -6 8 -13 8 -7 0 -24 10 -38 23 -14 12 -34
28 -45 35 -10 7 -32 21 -49 32 -16 10 -35 24 -42 29 -7 6 -14 11 -17 11 -2 0
-32 18 -65 40 -33 22 -65 40 -71 40 -5 0 -10 5 -10 10 0 6 -9 10 -19 10 -11 0
-21 4 -23 8 -4 12 -149 95 -165 95 -7 0 -13 4 -13 8 0 4 -20 15 -45 26 -25 10
-45 21 -45 26 0 4 -6 7 -14 7 -8 0 -34 11 -57 25 -24 14 -52 25 -61 25 -10 0
-18 4 -18 9 0 8 -21 17 -58 26 -7 2 -24 10 -37 19 -13 9 -29 16 -35 16 -6 0
-29 9 -53 19 -59 27 -81 34 -89 33 -5 -1 -8 2 -8 8 0 6 -3 9 -7 9 -5 -1 -10
-1 -13 1 -3 1 -16 4 -30 6 -13 2 -28 10 -32 17 -4 6 -8 8 -8 4 0 -4 -9 -3 -21
3 -11 6 -28 13 -37 15 -9 2 -36 10 -59 19 -24 8 -43 13 -43 9 0 -3 -6 -1 -13
5 -7 6 -24 13 -37 15 -14 3 -38 10 -55 17 -16 6 -31 11 -32 11 -2 0 -8 1 -15
3 -16 5 -66 18 -93 23 -37 8 -50 11 -50 13 0 1 -11 4 -25 7 -14 2 -29 6 -35 7
-50 14 -140 33 -210 45 -33 6 -73 14 -90 17 -43 8 -74 12 -125 18 -25 2 -60 7
-79 11 -19 3 -59 8 -90 11 -31 3 -74 7 -96 10 -44 5 -662 14 -667 9z"/>
</g>
</svg>
