<?xml version="1.0" standalone="no"?>
<!DOCTYPE svg PUBLIC "-//W3C//DTD SVG 20010904//EN"
 "http://www.w3.org/TR/2001/REC-SVG-20010904/DTD/svg10.dtd">
<svg version="1.0" xmlns="http://www.w3.org/2000/svg"
 width="700.000000pt" height="700.000000pt" viewBox="0 0 700.000000 700.000000"
 preserveAspectRatio="xMidYMid meet">
<metadata>
Created by potrace 1.14, written by Peter Selinger 2001-2017
</metadata>
<g transform="translate(0.000000,700.000000) scale(0.100000,-0.100000)"
fill="#000000" stroke="none">
<path d="M2125 5713 c-560 -22 -1088 -253 -1481 -648 -692 -695 -843 -1768
-368 -2625 403 -729 1181 -1168 2014 -1137 712 27 1366 396 1760 992 108 164
238 441 265 563 l7 32 304 0 304 0 0 -292 c0 -337 7 -388 70 -515 111 -225
366 -359 614 -323 203 29 377 155 463 335 55 117 63 174 63 503 l0 292 153 0
c183 0 263 15 372 69 200 99 321 286 333 511 15 295 -182 557 -468 624 -56 14
-210 16 -1132 16 l-1066 0 -28 83 c-218 660 -729 1178 -1384 1402 -161 55
-387 102 -525 110 -55 3 -122 7 -150 8 -27 2 -81 2 -120 0z m259 -862 c75 -37
128 -91 165 -170 25 -55 26 -61 31 -312 l5 -257 214 123 c126 73 234 128 263
136 108 25 237 -9 317 -84 137 -130 147 -343 22 -479 -38 -42 -93 -79 -255
-173 -114 -65 -209 -121 -211 -124 -2 -3 88 -59 198 -123 261 -151 310 -201
336 -341 35 -190 -106 -376 -306 -402 -87 -11 -153 13 -360 134 -104 61 -196
113 -205 116 -15 6 -17 -15 -20 -267 -3 -270 -3 -274 -29 -328 -34 -72 -97
-136 -167 -168 -49 -23 -71 -27 -147 -27 -76 0 -99 4 -145 26 -70 33 -136 99
-169 169 -26 54 -26 58 -29 328 -2 149 -7 272 -12 272 -4 0 -101 -54 -215
-119 -223 -129 -270 -147 -370 -139 -123 10 -231 85 -284 197 -22 47 -26 70
-26 146 0 78 4 97 28 146 41 84 101 132 320 258 108 62 197 116 197 120 0 4
-89 59 -197 122 -109 62 -215 129 -235 148 -50 44 -96 140 -104 217 -14 138
62 275 191 342 60 31 188 42 251 22 22 -7 127 -63 235 -126 108 -63 202 -114
208 -114 8 0 11 71 11 248 0 277 4 301 65 384 97 132 278 174 429 99z"/>
</g>
</svg>
