<?xml version="1.0" standalone="no"?>
<!DOCTYPE svg PUBLIC "-//W3C//DTD SVG 20010904//EN"
 "http://www.w3.org/TR/2001/REC-SVG-20010904/DTD/svg10.dtd">
<svg version="1.0" xmlns="http://www.w3.org/2000/svg"
 width="700.000000pt" height="700.000000pt" viewBox="0 0 700.000000 700.000000"
 preserveAspectRatio="xMidYMid meet">
<metadata>
Created by potrace 1.14, written by Peter Selinger 2001-2017
</metadata>
<g transform="translate(0.000000,700.000000) scale(0.100000,-0.100000)"
fill="#000000" stroke="none">
<path d="M2030 5707 c-3 -3 -39 -8 -80 -11 -153 -14 -380 -71 -550 -138 -69
-27 -249 -113 -294 -141 -11 -7 -45 -27 -75 -46 -263 -161 -542 -446 -710
-724 -172 -285 -274 -594 -309 -937 -8 -83 -7 -335 1 -420 53 -503 268 -962
619 -1321 306 -313 673 -517 1103 -614 168 -37 278 -49 470 -49 120 0 301 10
314 18 3 2 29 7 56 10 28 4 75 13 105 21 30 8 66 16 80 19 33 6 186 54 225 71
17 7 55 23 85 35 150 60 365 188 512 305 177 142 400 395 510 580 83 139 187
371 217 483 7 23 15 42 19 43 26 4 602 3 603 -1 0 -3 2 -147 3 -320 l2 -315
30 -85 c86 -247 299 -406 549 -413 296 -7 539 184 611 484 4 13 8 164 9 334 2
171 4 312 4 315 1 3 79 5 174 6 133 0 186 5 232 18 168 50 278 133 368 279
135 221 103 530 -76 719 -58 61 -149 125 -217 152 -110 43 -130 44 -920 45
-415 0 -894 1 -1065 1 l-310 1 -38 118 c-111 345 -357 704 -653 957 -63 54
-238 184 -248 184 -2 0 -35 19 -72 42 -110 66 -268 137 -424 188 -80 27 -158
51 -175 54 -16 2 -41 7 -55 11 -29 6 -58 11 -120 21 -25 3 -56 9 -70 11 -34 6
-435 15 -440 10z"/>
</g>
</svg>
